inDegrees=no
num_controls=7
num_derivatives=13
num_iterations=221
num_multipliers=7
num_parameters=0
num_slacks=7
num_states=26
objective=6.116636
objective_accelerations=0.518463
objective_balance=0.035316
objective_effort=0.482930
objective_height=5.055431
objective_ligament=0.024497
solver_duration=1902.922794
status=Solve_Succeeded
success=true
DataType=double
version=3
OpenSimVersion=4.4-2022-07-23-0e9fedc
endheader
time	/jointset/ground_pelvis/pelvis_tilt/value	/jointset/ground_pelvis/pelvis_tx/value	/jointset/ground_pelvis/pelvis_ty/value	/jointset/hip_r/hip_flexion_r/value	/jointset/hip_r/hip_adduction_r/value	/jointset/hip_r/hip_rotation_r/value	/jointset/back/lumbar_extension/value	/jointset/patellofemoral_r/patellar_flexion_r/value	/jointset/knee_r/knee_flexion_r/value	/jointset/knee_r/knee_adduction_r/value	/jointset/knee_r/knee_rotation_r/value	/jointset/ankle_r/ankle_angle_r/value	/jointset/subtalar_r/subtalar_angle_r/value	/jointset/ground_pelvis/pelvis_tilt/speed	/jointset/ground_pelvis/pelvis_tx/speed	/jointset/ground_pelvis/pelvis_ty/speed	/jointset/hip_r/hip_flexion_r/speed	/jointset/hip_r/hip_adduction_r/speed	/jointset/hip_r/hip_rotation_r/speed	/jointset/back/lumbar_extension/speed	/jointset/patellofemoral_r/patellar_flexion_r/speed	/jointset/knee_r/knee_flexion_r/speed	/jointset/knee_r/knee_adduction_r/speed	/jointset/knee_r/knee_rotation_r/speed	/jointset/ankle_r/ankle_angle_r/speed	/jointset/subtalar_r/subtalar_angle_r/speed	/forceset/tau_hip_flexion_r	/forceset/tau_hip_adduction_r	/forceset/tau_hip_rotation_r	/forceset/tau_knee_flexion_r	/forceset/tau_ankle_angle_r	/forceset/tau_subtalar_angle_r	/forceset/tau_lumbar_extension	lambda_cid13_p0	lambda_cid14_p0	lambda_cid14_p1	lambda_cid14_p2	lambda_cid14_p3	lambda_cid14_p4	lambda_cid14_p5	/jointset/ground_pelvis/pelvis_tilt/accel	/jointset/ground_pelvis/pelvis_tx/accel	/jointset/ground_pelvis/pelvis_ty/accel	/jointset/hip_r/hip_flexion_r/accel	/jointset/hip_r/hip_adduction_r/accel	/jointset/hip_r/hip_rotation_r/accel	/jointset/back/lumbar_extension/accel	/jointset/patellofemoral_r/patellar_flexion_r/accel	/jointset/knee_r/knee_flexion_r/accel	/jointset/knee_r/knee_adduction_r/accel	/jointset/knee_r/knee_rotation_r/accel	/jointset/ankle_r/ankle_angle_r/accel	/jointset/subtalar_r/subtalar_angle_r/accel	gamma_cid13_p0	gamma_cid14_p0	gamma_cid14_p1	gamma_cid14_p2	gamma_cid14_p3	gamma_cid14_p4	gamma_cid14_p5
1.5	-0.1449944950024168	0.04497880054882599	0.852727595470405	0.7685566820485852	-0.2407684702563614	-0.1119718256801764	-0.2864783199602648	0.7154262576967805	0.7154262576966637	0.06755328883190378	0.1745321574293839	0.2592991072515168	0.04079870658507333	0.3254243513986709	0.1523843708535914	0.4014001013692182	-1.728890694118102	0.03026204150503299	-0.390351439508449	0.6999352504727674	-1.934830396766026	-1.934830396765967	0.2017539606198742	-4.268630655613316e-06	-0.6220228564565145	-0.1232535693562666	-0.08891667796742611	-0.02205111088025887	0.01137196553148188	-0.3342269437136673	0.06694560910254672	-0.01099776940488635	0.1379499091120922	-30.45878981108967	-19.8409703922889	-4.098704998455604	-3.628753445058529	1.590234714078421	-655.9660241144857	59.37644766532815	0.165032799085943	0.3625144470517762	-0.5362652174995802	-0.8533610476393964	0.1223612750061535	-0.4406806594878303	1.339191886937832	-1.104134848575627	-1.104134848575624	0.3968127976335143	-0.02898902218971726	-0.5015763834790357	0.1028253712694121	1.608111942783361e-07	1.081100519918888e-07	-1.538657081939361e-06	8.582180768754915e-07	1.001817252634605e-07	1.995091887144866e-07	-1.139352353223008e-06
1.51	-0.1417323390608895	0.04652055823731975	0.856713942491009	0.7512271069244023	-0.240460486456981	-0.1158977778317661	-0.279413173739032	0.6960252938336053	0.6960252938334227	0.06959181017611615	0.1745321734299655	0.2530543845117806	0.03957042247980193	0.3269599790120369	0.1559424030041393	0.3957854250774454	-1.736783674889464	0.03133464374555964	-0.3948072218468375	0.7129863867039075	-1.945085485546377	-1.945085485546354	0.2059493068191983	4.277685499930638e-06	-0.6268308898765762	-0.1223838165251896	-0.08274417998191157	-0.02380297484383254	0.01084953818183089	-0.3306960229525314	0.07051432348699901	-0.01221666597524573	0.1322889922471281	-31.57325521859764	-18.55285083369169	-4.308281501686108	-3.702997041239571	1.180201554364487	-652.2060331101264	59.1685738321901	0.1408087820039433	0.3487569873230963	-0.5866099633610561	-0.7211561989917588	0.09968277452548044	-0.4430336032014586	1.27193343061885	-0.9446968630250325	-0.9446968630304019	0.4305382423535812	0.01544031404452902	-0.4567589538213851	0.08179882104757843	1.685872384925135e-07	1.057341734954448e-07	-1.649345071701998e-06	8.619101554906071e-07	1.131437243839402e-07	2.015582385625012e-07	-1.199705925538554e-06
1.52	-0.1384562306353239	0.0480971581249722	0.8606416345230263	0.7338258240710818	-0.240141782020006	-0.1198672891231764	-0.272220744367605	0.676530078888574	0.6765300788883283	0.07167221352457609	0.1745322076648103	0.2467643130113332	0.03835138561924541	0.3282148482070933	0.1593528106853301	0.3896691036518749	-1.743232239945113	0.03240616902406853	-0.3990632674727105	0.7253918805117248	-1.953680613137134	-1.953680613137146	0.2101303614693918	-6.217772908933044e-07	-0.631092608598703	-0.1214041204132833	-0.07657168199639697	-0.02555483880740578	0.01032711083217574	-0.3271651021913953	0.07408303787145172	-0.01343556254560436	0.1266280753821636	-32.6660972969412	-17.27000083704013	-4.513849649680351	-3.783512493343138	0.7615308886202425	-648.540675722225	59.02718237017289	0.1088811154239182	0.3329895531804157	-0.6365942442591142	-0.5644779044969997	0.1221458826025921	-0.400733316984772	1.210063402273187	-0.7721426106565754	-0.772142610656576	0.3939544878074019	-0.03167817797897947	-0.3923134438919218	0.1248140274352949	1.761988507393828e-07	1.015354430329464e-07	-1.757674742320935e-06	8.600786437082711e-07	1.275128483939482e-07	1.981434153241745e-07	-1.25446570140882e-06
1.53	-0.1351690766595053	0.04970708143737384	0.8645057014306564	0.716367456362716	-0.2398123840331311	-0.123878558070089	-0.2649075062144135	0.656957364724409	0.6569573647244149	0.07379424859664668	0.1745322961070542	0.2404344157628534	0.03714269934893861	0.3291672115999067	0.1626025234432703	0.3830670788710746	-1.748191604254618	0.03347419444013322	-0.4031546581284313	0.7371354661173547	-1.960574013864985	-1.960574013864973	0.214269593545495	1.240796100304793e-05	-0.6347903190355292	-0.120312062851073	-0.07030941864800511	-0.02745044347128574	0.009770222929581473	-0.3238071298593433	0.07782816056011418	-0.01477373861653528	0.1209068309328735	-33.72744912434699	-15.94779551156926	-4.768569206365414	-3.851349319846182	0.34834977344906	-645.055135203913	58.84314213598734	0.08111295940735158	0.3165932585543151	-0.6835496480005104	-0.4242002218839191	0.09920148463657756	-0.4077236056143707	1.138463538216859	-0.6047454526806104	-0.604745452676948	0.4226109772151153	0.01705051076335432	-0.3439807697323807	0.1043603070083195	1.836357540209873e-07	9.539993235651531e-08	-1.863498698849693e-06	8.523783171286426e-07	1.4337704259908e-07	1.889232269316102e-07	-1.303282068555975e-06
1.54	-0.1318738592481231	0.05134862810164543	0.8683014394798763	0.6988669881057109	-0.2394722916693906	-0.1279296172567079	-0.2574804407254646	0.637324355223198	0.6373243552234595	0.07595741667141773	0.174532366238889	0.2340704452247742	0.03594552539153276	0.3298275353206226	0.1656774810593188	0.376003331969875	-1.751652349672389	0.03454504439732468	-0.4070213154140979	0.7481573476633505	-1.965739680546084	-1.965739680546048	0.218356962009732	-4.283859512152379e-06	-0.6379072665185311	-0.1191016578330857	-0.0640471552996123	-0.02934604813516553	0.009213335026991605	-0.3204491575272913	0.08157328324877705	-0.01611191468746598	0.1151855864835839	-34.75181831091128	-14.63348221946873	-5.019508317328438	-3.925685840793935	-0.06725556825832424	-641.7050836682907	58.7307635542339	0.05047318100433526	0.2980385248021684	-0.7289386683389804	-0.2647541261502603	0.1227107908279366	-0.3557866429739354	1.065722590346264	-0.4265958013061708	-0.4265958013061704	0.3835817654341661	-0.03762248974080247	-0.276160853126999	0.148483518590707	1.908792254204076e-07	8.95254686442331e-08	-1.968648266965759e-06	8.435023935671439e-07	1.580960768915819e-07	1.82322892581446e-07	-1.34956931811722e-06
1.55	-0.1285735623757542	0.05302001210332538	0.8720243000473711	0.6813395059601042	-0.2391215170136432	-0.1320184522961684	-0.2499468156652827	0.6176484269043805	0.6176484269045458	0.07816113656183034	0.1745323568633348	0.227678242247365	0.03476101396628381	0.3301805415050511	0.1685658665724653	0.3684993246654222	-1.753586467940658	0.03560820857284991	-0.4107084001746141	0.7584369064295471	-1.969148367659102	-1.969148367659104	0.2223784075023408	2.677735279046113e-07	-0.6404327608017457	-0.1177824446850956	-0.05770977990188909	-0.031425631598228	0.008613335741863201	-0.3172732543974112	0.08550728371522376	-0.01755118598399972	0.1094275234016979	-35.73359117541458	-13.27670240677342	-5.309047557833904	-3.991435004106942	-0.4847294915284698	-638.5681157050042	58.60029007929375	0.02002798711342875	0.2792564471521023	-0.7715149407956091	-0.1190896068029385	0.09779225054536206	-0.3693279208312977	0.9894588281213221	-0.2534031926331654	-0.2534031926387729	0.4098657557425545	0.01931538055544347	-0.2256145419338255	0.1261302361842976	1.978998296512246e-07	8.39517764341224e-08	-2.073020822345464e-06	8.332719778308815e-07	1.714956878064884e-07	1.787410857149167e-07	-1.39294258437296e-06
